<svg width="512" height="512" viewBox="0 0 512 512" fill="none" xmlns="http://www.w3.org/2000/svg">
<path fill-rule="evenodd" clip-rule="evenodd" d="M239.481 307.056C241.308 305.371 243.135 303.454 244.962 301.305C247.785 297.985 250.311 294.186 252.54 289.906C254.769 285.627 256.552 280.868 257.889 275.63C259.226 270.392 259.895 264.747 259.895 258.697C259.895 246.893 257.777 236.084 253.543 226.271C249.308 216.458 243.402 208.047 235.824 201.038C228.247 194.029 219.258 188.57 208.857 184.659C198.456 180.749 187.164 178.794 174.98 178.794C162.796 178.794 151.467 180.749 140.992 184.659C130.517 188.57 121.453 194.066 113.801 201.149C106.149 208.232 100.169 216.717 95.8601 226.603C91.5512 236.49 89.3968 247.409 89.3968 259.361C89.3968 272.199 91.4398 283.598 95.5258 293.559C99.6119 303.519 105.332 311.93 112.687 318.791C120.042 325.653 128.92 330.854 139.32 334.396C149.721 337.937 161.162 339.708 173.643 339.708H262.079C270.392 339.708 277.13 332.969 277.13 324.657C277.13 324.576 277.13 324.496 277.128 324.415C276.995 316.238 270.258 309.718 262.081 309.852L255.91 309.952C244.892 310.81 235.414 313.296 227.475 317.411L236.493 309.633V309.606C236.627 309.501 236.76 309.395 236.894 309.288L239.481 307.056ZM256 512C114.615 512 0 397.385 0 256C0 114.615 114.615 0 256 0C397.385 0 512 114.615 512 256C512 397.385 397.385 512 256 512ZM286.369 183.263C276.329 183.263 268.19 191.402 268.19 201.442C268.19 211.482 276.329 219.621 286.369 219.621H393.047C403.086 219.621 411.225 211.482 411.225 201.442C411.225 191.402 403.086 183.263 393.047 183.263H286.369ZM321.829 316.775C321.829 326.972 329.833 335.238 339.708 335.238C349.582 335.238 357.587 326.972 357.587 316.775V246.425C357.587 236.228 349.582 232.432 339.708 232.432C329.833 232.432 321.829 236.228 321.829 246.425V316.775ZM219.555 259.804C219.555 266.887 218.44 273.343 216.212 279.171C213.983 285 210.863 290.017 206.851 294.223C202.839 298.428 198.085 301.674 192.587 303.962C187.089 306.249 181.146 307.392 174.757 307.392C168.22 307.392 162.239 306.249 156.816 303.962C151.393 301.674 146.712 298.428 142.775 294.223C138.837 290.017 135.792 285 133.637 279.171C131.483 273.343 130.405 266.887 130.405 259.804C130.405 253.016 131.52 246.745 133.749 240.99C135.977 235.235 139.097 230.292 143.109 226.16C147.121 222.029 151.838 218.819 157.262 216.532C162.685 214.245 168.591 213.101 174.98 213.101C181.518 213.101 187.535 214.245 193.033 216.532C198.53 218.819 203.248 222.029 207.185 226.16C211.123 230.292 214.169 235.235 216.323 240.99C218.477 246.745 219.555 253.016 219.555 259.804Z" fill="#159588"/>
</svg>
